<svg xmlns="http://www.w3.org/2000/svg" viewBox="0 0 1200 675" role="img" aria-labelledby="t d"><title id="t">Comunidad de práctica docente</title><desc id="d">Grupo de docentes intercambia experiencias alrededor de una mesa con materiales y un equipo compartido.</desc><defs><linearGradient id="b" x1="0" y1="0" x2="1" y2="1"><stop stop-color="#eef8f2"/><stop offset="1" stop-color="#e5f1f7"/></linearGradient></defs><rect width="1200" height="675" fill="url(#b)"/><rect x="70" y="58" width="1060" height="540" rx="28" fill="#fff" stroke="#dbe4ea" stroke-width="5"/><rect x="110" y="100" width="980" height="155" rx="18" fill="#e7f2e9"/><path d="M110 230Q220 145 350 220T620 205T900 210T1090 185V255H110Z" fill="#7ea68a"/><circle cx="260" cy="310" r="45" fill="#ddb08e"/><circle cx="455" cy="295" r="45" fill="#c98d67"/><circle cx="650" cy="308" r="45" fill="#e4b798"/><circle cx="835" cy="295" r="45" fill="#bf825f"/><circle cx="995" cy="315" r="45" fill="#d3a07e"/><g fill="#425f52"><path d="M190 450q70-130 140 0v70H190z"/><path d="M770 440q70-130 140 0v80H770z"/></g><g fill="#b66e49"><path d="M385 435q70-135 140 0v85H385z"/></g><g fill="#2d5970"><path d="M580 445q70-130 140 0v75H580z"/><path d="M925 450q70-125 140 0v70H925z"/></g><rect x="0" y="505" width="1200" height="170" fill="#a8754f"/><rect x="470" y="430" width="265" height="120" rx="15" fill="#2b3e4c"/><rect x="495" y="450" width="215" height="77" rx="8" fill="#d8eaf2"/><g fill="#fff"><rect x="140" y="535" width="180" height="70" rx="8" transform="rotate(-5 140 535)"/><rect x="830" y="535" width="180" height="70" rx="8" transform="rotate(5 830 535)"/></g><g stroke="#617986" stroke-width="6" stroke-linecap="round"><path d="M165 558h118M165 580h95M858 558h115M858 580h95"/></g><circle cx="360" cy="560" r="28" fill="#dfe9e1"/><circle cx="780" cy="565" r="30" fill="#f5eadc"/><path d="M250 300q15-35 35 0M445 285q15-35 35 0M640 298q15-35 35 0M825 285q15-35 35 0M985 305q15-35 35 0" stroke="#2f2b2b" stroke-width="14" stroke-linecap="round"/></svg>