<svg xmlns="http://www.w3.org/2000/svg" viewBox="0 0 1200 675" role="img" aria-labelledby="t d"><title id="t">Planeación con criterio pedagógico</title><desc id="d">Docente planifica una actividad con cuaderno, materiales locales y un equipo portátil.</desc><defs><linearGradient id="bg" x1="0" y1="0" x2="1" y2="1"><stop stop-color="#f7f1e7"/><stop offset="1" stop-color="#dff2fb"/></linearGradient></defs><rect width="1200" height="675" fill="url(#bg)"/><rect x="55" y="65" width="1090" height="545" rx="30" fill="#fff" stroke="#dbe4ea" stroke-width="5"/><rect x="92" y="105" width="300" height="215" rx="18" fill="#173f55"/><path d="M120 278 185 190l55 53 52-78 75 113" fill="none" stroke="#b8d9c2" stroke-width="8"/><circle cx="535" cy="227" r="72" fill="#c98661"/><path d="M472 220q62-95 126 0" fill="#2f2b2b"/><path d="M420 455q115-180 230 0v90H420z" fill="#b96f4c"/><rect x="720" y="220" width="330" height="220" rx="20" fill="#273c4b"/><rect x="745" y="245" width="280" height="160" rx="12" fill="#d9ecf5"/><g fill="#fff"><rect x="775" y="275" width="95" height="88" rx="10"/><rect x="892" y="275" width="105" height="32" rx="8"/><rect x="892" y="324" width="105" height="39" rx="8"/></g><g fill="none" stroke="#4f7a61" stroke-width="13"><circle cx="862" cy="137" r="58"/><circle cx="960" cy="137" r="58"/><circle cx="911" cy="210" r="58"/></g><g fill="#2d86b8"><circle cx="862" cy="137" r="12"/><rect x="941" y="119" width="38" height="34" rx="4"/><path d="M895 210h32v26h-32z"/></g><rect x="160" y="415" width="360" height="138" rx="16" fill="#fbfbfb" stroke="#d7e0e5" stroke-width="5" transform="rotate(-5 160 415)"/><path d="M205 455h220M205 485h185M205 515h240" stroke="#7e97a6" stroke-width="7" stroke-linecap="round"/><rect x="682" y="476" width="285" height="68" rx="14" fill="#f4ecd9"/><circle cx="1020" cy="505" r="40" fill="#4f7a61"/><path d="M1000 508h40M1020 488v40" stroke="#fff" stroke-width="7" stroke-linecap="round"/></svg>